PathFileType	4	(X/Y/Z)	C:/Users/opensim2020/Desktop/walking_exp_matlab/subject02_walking07_straight_04.trc																																																																																																																																																				
DataRate	CameraRate	NumFrames	NumMarkers	Units	OrigDataRate	OrigDataStartFrame	OrigNumFrames																																																																																																																																																
100	100	8	50	mm	100	2824	207																																																																																																																																																
Frame#	Time	LFHD			RFHD			LBHD			RBHD			C7			T10			CLAV			STRN			RBAK			LSHO			LUPA			LELB			LFRM			LWRA			LWRB			LFIN			RSHO			RUPA			RELB			RFRM			RWRA			RWRB			RFIN			LASI			RASI			LPSI			RPSI			LTHI			LKNE			LTIB			LANK			LHEE			LTOE			RTHI			RKNE			RTIB			RANK			RHEE			RTOE			*39			*40			*41			*42			*43			*44			*45			*46			*47			*48			*49		
		X1	Y1	Z1	X2	Y2	Z2	X3	Y3	Z3	X4	Y4	Z4	X5	Y5	Z5	X6	Y6	Z6	X7	Y7	Z7	X8	Y8	Z8	X9	Y9	Z9	X10	Y10	Z10	X11	Y11	Z11	X12	Y12	Z12	X13	Y13	Z13	X14	Y14	Z14	X15	Y15	Z15	X16	Y16	Z16	X17	Y17	Z17	X18	Y18	Z18	X19	Y19	Z19	X20	Y20	Z20	X21	Y21	Z21	X22	Y22	Z22	X23	Y23	Z23	X24	Y24	Z24	X25	Y25	Z25	X26	Y26	Z26	X27	Y27	Z27	X28	Y28	Z28	X29	Y29	Z29	X30	Y30	Z30	X31	Y31	Z31	X32	Y32	Z32	X33	Y33	Z33	X34	Y34	Z34	X35	Y35	Z35	X36	Y36	Z36	X37	Y37	Z37	X38	Y38	Z38	X39	Y39	Z39	X40	Y40	Z40	X41	Y41	Z41	X42	Y42	Z42	X43	Y43	Z43	X44	Y44	Z44	X45	Y45	Z45	X46	Y46	Z46	X47	Y47	Z47	X48	Y48	Z48	X49	Y49	Z49	X50	Y50	Z50
																																																																																																																																																							
104	1.03	229.7894	1709.73499	951.65942	202.3398	1684.48047	1090.67554	93.81937	1654.31482	915.75391	54.51852	1629.62341	1053.44373	16.92782	1502.56995	976.07782	-30.15365	1225.78162	978.03918	159.50099	1437.9873	979.02185	214.54494	1267.92969	989.88477	-45.10047	1322.95679	1028.69165	105.08847	1485.06665	806.19891	159.51089	1303.63135	707.42853	229.46686	1180.02539	679.37958	338.63641	1098.94409	684.43829	459.71408	1065.47546	738.28406	437.38614	1028.8252	701.98615	500.91568	1010.60504	705.63068	69.66318	1465.47522	1168.07874	2.8612	1283.47339	1238.14221	-4.60202	1138.31042	1258.47974	-0.29701	1019.2749	1285.82043	27.29528	885.15533	1277.94299	-23.95041	891.70526	1301.61499	-0.93807	821.90405	1309.52844	189.16312	962.06641	847.41077	199.43373	953.74847	1102.65515	-16.70346	1010.09839	937.24921	-19.67858	1007.79962	1051.10449	65.04614	660.74036	801.6236	-10.05705	469.89844	830.84521	-124.22823	310.67654	830.46454	-191.79683	95.12022	864.88593	-233.52728	76.24624	916.08539	-45.55947	32.46607	854.03412	186.26422	657.6524	1187.59937	255.87553	461.57327	1149.23132	272.24127	275.45984	1160.25854	320.81989	86.8967	1133.89746	310.42078	28.08039	1075.95618	480.63077	70.79936	1158.74866	123.26162	1784.43494	1027.77197	-2845.90625	1034.08044	3357.35254	NaN	NaN	NaN	NaN	NaN	NaN	NaN	NaN	NaN	NaN	NaN	NaN	NaN	NaN	NaN	NaN	NaN	NaN	NaN	NaN	NaN	NaN	NaN	NaN	NaN	NaN	NaN
105	1.04	239.10149	1709.11877	954.14209	211.81213	1683.6554	1093.12549	102.93969	1653.39624	918.19989	64.19404	1628.27258	1055.80054	26.74412	1501.3783	978.80084	-19.7384	1224.38281	980.90277	169.45718	1436.98523	981.36395	224.99838	1267.16345	992.1488	-34.81707	1321.57349	1031.52014	114.58854	1483.72632	808.59729	167.28139	1301.58154	710.25934	235.21233	1177.03748	682.12671	342.77335	1094.32141	686.59131	464.04257	1058.83765	739.68463	440.71619	1022.64526	703.60791	503.98126	1003.2049	706.92432	79.82111	1464.38367	1170.49634	13.40298	1282.16589	1240.33032	6.05469	1137.03479	1260.62207	10.06166	1018.04016	1287.95837	37.05859	883.7851	1280.32776	-13.96922	890.57678	1303.79138	8.69808	820.66565	1311.76917	200.1217	961.03015	849.59644	211.0862	953.3916	1104.88745	-5.71109	1008.67114	940.47107	-8.31411	1006.59784	1054.16199	74.69463	660.04034	803.33002	-1.31975	469.85431	831.99719	-118.66484	312.81314	831.67255	-190.31889	98.43763	864.83844	-231.81543	80.397	916.01984	-45.43362	32.39761	853.82513	200.03539	657.53375	1189.8562	265.80997	460.29034	1151.60425	279.00912	273.24515	1159.74304	324.6947	85.43766	1133.32788	312.28561	29.80127	1075.20129	484.66415	61.90831	1159.02808	132.34888	1783.72375	1030.37305	-2845.13232	1033.90271	3360.23145	NaN	NaN	NaN	NaN	NaN	NaN	NaN	NaN	NaN	NaN	NaN	NaN	NaN	NaN	NaN	NaN	NaN	NaN	NaN	NaN	NaN	NaN	NaN	NaN	NaN	NaN	NaN
106	1.05	248.63428	1708.90747	956.7403	221.44157	1683.3479	1095.59045	112.85457	1652.68335	920.99847	73.95843	1627.48462	1058.46204	36.12709	1500.10938	981.29828	-9.36943	1223.64868	983.82178	179.47533	1436.26868	983.6897	235.3087	1266.7832	994.43805	-24.48053	1320.4613	1034.32495	123.98816	1482.62537	810.94623	174.76991	1299.74841	713.04541	240.75049	1174.02429	685.08643	346.55011	1089.2146	689.05737	467.72064	1051.58435	741.23285	443.30487	1015.80267	705.23083	506.25119	995.17432	708.06439	90.15965	1463.31982	1172.96204	24.02215	1281.14148	1243.40759	16.95825	1135.64563	1262.88086	20.73582	1016.93555	1290.29907	47.68051	882.70313	1282.6261	-3.55753	889.52637	1306.12634	18.87933	819.49463	1314.1239	211.35951	960.03625	851.90521	222.31784	953.26959	1107.16895	5.33779	1007.40216	943.80347	3.18467	1005.74677	1057.38916	84.48609	659.44617	805.16193	7.71975	469.93323	833.28931	-112.68678	315.26193	832.76331	-188.51212	102.14949	864.52838	-230.14401	85.29985	915.7771	-45.28814	32.34599	853.64587	212.99323	658.37347	1192.271	275.6373	460.19803	1154.41223	286.90765	272.64365	1158.83826	330.3576	85.83595	1135.38599	315.36966	32.05725	1076.82385	489.84464	54.07785	1160.66943	141.41617	1782.74341	1032.80811	-2845.19775	1033.93176	3360.2998	NaN	NaN	NaN	NaN	NaN	NaN	NaN	NaN	NaN	NaN	NaN	NaN	NaN	NaN	NaN	NaN	NaN	NaN	NaN	NaN	NaN	NaN	NaN	NaN	NaN	NaN	NaN
107	1.06	257.8681	1709.48169	958.96588	231.06502	1683.4408	1098.23035	122.30499	1652.62891	923.40521	83.56614	1627.11926	1061.37708	45.75752	1499.31946	984.02863	1.03421	1223.23193	986.6496	189.32339	1436.1449	986.1131	245.64749	1266.77502	996.76367	-14.33601	1320.04517	1037.44592	133.25893	1481.88416	813.1236	182.37354	1297.87512	716.02881	246.13242	1171.07129	688.18549	349.6134	1084.03955	691.35883	470.70596	1043.80554	742.63171	445.81662	1008.6507	706.96954	507.3338	986.22345	709.3299	100.29883	1462.77454	1175.78638	35.02663	1279.97534	1245.86914	28.2253	1134.67078	1265.35962	31.80254	1015.8869	1292.6532	58.63108	881.67017	1285.14587	7.29774	888.49994	1308.38879	29.51369	818.62836	1317.01599	222.85379	959.11279	854.45941	233.48715	953.50238	1109.74329	16.40044	1006.33667	947.02625	14.98009	1005.48938	1060.63953	95.43479	659.06665	807.34967	17.29374	470.24255	834.62372	-106.27072	318.16025	833.9151	-185.9617	106.39824	864.16541	-227.59575	90.4618	915.4278	-45.11011	32.31153	853.46539	224.9873	659.75323	1194.95508	286.48889	461.50092	1157.81982	295.82816	273.89438	1163.04895	335.83112	85.65501	1138.09009	317.62076	33.67289	1079.17505	493.93091	49.21562	1161.50452	150.92075	1782.87769	1035.78455	-2845.88672	1034.17419	3357.31201	NaN	NaN	NaN	NaN	NaN	NaN	NaN	NaN	NaN	NaN	NaN	NaN	NaN	NaN	NaN	NaN	NaN	NaN	NaN	NaN	NaN	NaN	NaN	NaN	NaN	NaN	NaN
108	1.07	268.1904	1709.67566	962.40796	240.90401	1683.44958	1100.87976	132.44608	1652.7002	926.36188	93.49357	1627.10962	1063.79578	55.70575	1499.32703	986.80328	11.28908	1223.00891	989.31018	199.17181	1436.22083	988.59943	256.00671	1266.96729	999.13171	-4.08006	1319.77161	1040.06226	142.56502	1481.46521	815.30084	189.9308	1296.09448	719.16083	251.2052	1168.17615	691.51178	353.38593	1078.6759	694.0235	473.05325	1035.48853	744.13025	446.57541	1000.73688	708.73785	508.62878	977.34967	710.63275	110.55199	1462.39661	1178.86926	46.24741	1279.0824	1248.99829	39.80805	1133.73877	1267.9165	43.28244	1015.03784	1295.03821	70.06195	880.55164	1287.47913	18.66071	887.72815	1310.79236	40.86204	817.90588	1319.11829	234.662	958.25623	857.4577	244.65468	954.22742	1112.52917	27.59149	1005.57031	950.09167	26.63728	1006.20111	1063.96167	105.80268	658.79303	809.53229	27.62353	470.80661	835.8399	-99.17648	321.45554	835.0025	-183.30429	111.16783	863.83301	-224.44975	96.33876	915.33557	-44.82622	32.27905	853.24701	236.07339	661.31995	1197.86108	298.68695	463.81128	1160.92273	305.89673	276.11282	1167.88062	339.87167	85.99191	1139.62292	318.92365	34.75304	1080.53162	496.55698	45.91171	1162.4093	160.23148	1782.72266	1038.41577	-2845.27051	1033.80115	3360.46069	NaN	NaN	NaN	NaN	NaN	NaN	NaN	NaN	NaN	NaN	NaN	NaN	NaN	NaN	NaN	NaN	NaN	NaN	NaN	NaN	NaN	NaN	NaN	NaN	NaN	NaN	NaN
109	1.08	277.37759	1710.23767	964.61243	250.66083	1683.88123	1103.37964	141.9212	1653.13049	928.95892	103.26787	1627.20447	1066.51904	65.86949	1499.71826	989.5174	21.54669	1223.09399	991.72168	209.00572	1436.52734	991.10272	266.24194	1267.54907	1001.67206	6.06262	1319.94116	1043.6062	151.92836	1481.34094	817.43347	197.10126	1294.41455	722.39954	256.31741	1165.39099	695.17804	355.50821	1073.31799	696.48969	474.7392	1026.78406	745.63568	446.53088	992.84204	710.43359	508.08408	967.85699	711.66351	121.08373	1462.14233	1181.66858	57.66376	1278.46936	1252.02197	51.70682	1133.09509	1270.51758	55.19646	1014.48853	1297.54077	81.9215	880.0097	1289.8877	30.52252	887.21198	1313.29822	52.67271	817.16687	1321.29504	246.48782	957.78583	860.62079	255.75549	955.37927	1115.60754	39.2629	1005.33508	952.85803	38.22245	1007.66815	1067.01489	117.14545	658.79199	811.82074	38.86136	471.46741	836.99298	-91.27462	325.09811	835.93311	-179.95009	116.45766	863.16217	-221.38699	103.2009	914.76379	-44.46986	32.31863	852.99072	246.75336	663.03125	1200.7157	311.63556	466.34113	1162.96143	315.72665	278.1832	1171.05579	342.13663	86.83862	1140.03259	319.28067	35.15152	1080.97827	497.61063	43.45795	1161.77441	169.83711	1782.87854	1041.06116	-2845.89038	1033.95471	3357.41797	NaN	NaN	NaN	NaN	NaN	NaN	NaN	NaN	NaN	NaN	NaN	NaN	NaN	NaN	NaN	NaN	NaN	NaN	NaN	NaN	NaN	NaN	NaN	NaN	NaN	NaN	NaN
110	1.09	286.43604	1710.7384	966.69537	260.44708	1684.41077	1106.03467	151.32324	1653.66833	931.64642	113.07378	1627.53735	1069.31665	75.54926	1500.35254	992.3053	31.60998	1223.427	993.97705	218.7589	1437.03076	993.57874	276.47083	1268.31189	1004.21094	15.96124	1320.59058	1046.85583	161.48579	1481.47961	819.61676	203.99846	1293.13708	725.41266	260.92969	1162.92493	698.97504	357.42419	1068.17224	699.42566	475.8811	1017.9408	747.18542	446.60355	984.97028	712.20319	506.55341	957.92108	712.84576	131.29364	1462.33154	1184.32214	69.21149	1277.98145	1255.00659	63.87176	1132.71228	1273.32507	67.55201	1014.2132	1300.07532	93.85526	879.55188	1292.2417	42.99219	886.96027	1315.91699	65.09795	817.11322	1324.07654	258.32861	957.5874	864.1759	266.91724	956.93329	1118.8894	51.32648	1005.65973	955.25854	49.54518	1009.54596	1069.875	128.96095	658.89276	814.2149	51.15447	472.2428	837.99884	-82.23409	328.98203	836.65985	-175.99171	122.33237	862.4754	-216.93808	110.38547	914.49493	-44.00327	32.40704	852.63782	258.00305	664.74506	1202.85852	324.61057	468.15518	1164.28979	325.07553	279.63843	1173.65186	344.14471	87.91199	1139.84265	319.57864	35.61414	1081.04614	499.05927	41.70187	1159.85803	179.58528	1783.61902	1044.06641	-2845.12085	1033.79456	3360.37573	NaN	NaN	NaN	NaN	NaN	NaN	NaN	NaN	NaN	NaN	NaN	NaN	NaN	NaN	NaN	NaN	NaN	NaN	NaN	NaN	NaN	NaN	NaN	NaN	NaN	NaN	NaN
111	1.1	296.38608	1711.64685	969.47174	270.1832	1685.02588	1108.57129	160.96986	1654.26453	934.4325	122.90445	1628.02502	1072.11353	85.33841	1501.14783	994.9436	41.98862	1223.86218	995.98053	228.52051	1437.73547	996.08917	286.85446	1269.31458	1006.8996	26.19656	1321.12329	1049.86768	171.32524	1481.84485	821.86365	211.02191	1292.00146	728.6344	265.33972	1160.8418	702.78021	358.50668	1062.94678	702.24091	475.57986	1008.47321	748.64447	444.85544	976.86292	713.9906	504.07178	947.76666	714.04797	141.30783	1463.13525	1187.3136	80.94071	1277.8584	1258.15881	76.41753	1132.6875	1275.81824	80.31196	1014.27277	1302.66394	106.81927	879.59247	1294.77576	56.02287	886.99738	1318.65967	78.17405	816.91132	1326.40161	270.39182	957.69971	868.29425	278.13602	958.86414	1122.41174	63.47655	1006.29224	957.34467	60.58606	1011.18274	1072.55493	141.40552	659.04852	816.54523	64.54836	473.12469	838.89722	-72.32887	333.20844	837.27728	-171.39548	128.91867	861.68152	-211.48885	118.50974	914.06348	-43.47159	32.47943	852.28259	269.98688	666.4679	1204.68896	336.84232	469.19989	1165.4342	333.63834	280.44916	1174.99316	346.70511	88.6154	1139.64734	320.13831	36.10432	1081.42712	501.35461	40.26291	1158.3772	189.08237	1784.05701	1046.59961	NaN	NaN	NaN	NaN	NaN	NaN	NaN	NaN	NaN	NaN	NaN	NaN	NaN	NaN	NaN	NaN	NaN	NaN	NaN	NaN	NaN	NaN	NaN	NaN	NaN	NaN	NaN	NaN	NaN	NaN
